<?xml version='1.0' encoding='UTF-8'?>
<svg width="90mm" height="90mm" version="1.1" viewBox="0 0 90 90" xmlns="http://www.w3.org/2000/svg"><path d="M8,8H10V10H8zM10,8H12V10H10zM12,8H14V10H12zM14,8H16V10H14zM16,8H18V10H16zM18,8H20V10H18zM20,8H22V10H20zM24,8H26V10H24zM32,8H34V10H32zM34,8H36V10H34zM38,8H40V10H38zM42,8H44V10H42zM46,8H48V10H46zM48,8H50V10H48zM52,8H54V10H52zM62,8H64V10H62zM68,8H70V10H68zM70,8H72V10H70zM72,8H74V10H72zM74,8H76V10H74zM76,8H78V10H76zM78,8H80V10H78zM80,8H82V10H80zM8,10H10V12H8zM20,10H22V12H20zM24,10H26V12H24zM26,10H28V12H26zM28,10H30V12H28zM32,10H34V12H32zM42,10H44V12H42zM44,10H46V12H44zM46,10H48V12H46zM50,10H52V12H50zM52,10H54V12H52zM56,10H58V12H56zM64,10H66V12H64zM68,10H70V12H68zM80,10H82V12H80zM8,12H10V14H8zM12,12H14V14H12zM14,12H16V14H14zM16,12H18V14H16zM20,12H22V14H20zM24,12H26V14H24zM30,12H32V14H30zM34,12H36V14H34zM46,12H48V14H46zM50,12H52V14H50zM54,12H56V14H54zM58,12H60V14H58zM60,12H62V14H60zM62,12H64V14H62zM64,12H66V14H64zM68,12H70V14H68zM72,12H74V14H72zM74,12H76V14H74zM76,12H78V14H76zM80,12H82V14H80zM8,14H10V16H8zM12,14H14V16H12zM14,14H16V16H14zM16,14H18V16H16zM20,14H22V16H20zM26,14H28V16H26zM30,14H32V16H30zM38,14H40V16H38zM40,14H42V16H40zM42,14H44V16H42zM50,14H52V16H50zM56,14H58V16H56zM58,14H60V16H58zM62,14H64V16H62zM64,14H66V16H64zM68,14H70V16H68zM72,14H74V16H72zM74,14H76V16H74zM76,14H78V16H76zM80,14H82V16H80zM8,16H10V18H8zM12,16H14V18H12zM14,16H16V18H14zM16,16H18V18H16zM20,16H22V18H20zM24,16H26V18H24zM26,16H28V18H26zM36,16H38V18H36zM38,16H40V18H38zM46,16H48V18H46zM48,16H50V18H48zM56,16H58V18H56zM60,16H62V18H60zM64,16H66V18H64zM68,16H70V18H68zM72,16H74V18H72zM74,16H76V18H74zM76,16H78V18H76zM80,16H82V18H80zM8,18H10V20H8zM20,18H22V20H20zM26,18H28V20H26zM28,18H30V20H28zM30,18H32V20H30zM32,18H34V20H32zM36,18H38V20H36zM48,18H50V20H48zM52,18H54V20H52zM54,18H56V20H54zM58,18H60V20H58zM60,18H62V20H60zM68,18H70V20H68zM80,18H82V20H80zM8,20H10V22H8zM10,20H12V22H10zM12,20H14V22H12zM14,20H16V22H14zM16,20H18V22H16zM18,20H20V22H18zM20,20H22V22H20zM24,20H26V22H24zM28,20H30V22H28zM32,20H34V22H32zM36,20H38V22H36zM40,20H42V22H40zM44,20H46V22H44zM48,20H50V22H48zM52,20H54V22H52zM56,20H58V22H56zM60,20H62V22H60zM64,20H66V22H64zM68,20H70V22H68zM70,20H72V22H70zM72,20H74V22H72zM74,20H76V22H74zM76,20H78V22H76zM78,20H80V22H78zM80,20H82V22H80zM26,22H28V24H26zM28,22H30V24H28zM36,22H38V24H36zM38,22H40V24H38zM40,22H42V24H40zM42,22H44V24H42zM44,22H46V24H44zM46,22H48V24H46zM48,22H50V24H48zM52,22H54V24H52zM58,22H60V24H58zM62,22H64V24H62zM64,22H66V24H64zM8,24H10V26H8zM14,24H16V26H14zM16,24H18V26H16zM18,24H20V26H18zM20,24H22V26H20zM22,24H24V26H22zM24,24H26V26H24zM28,24H30V26H28zM32,24H34V26H32zM36,24H38V26H36zM38,24H40V26H38zM46,24H48V26H46zM54,24H56V26H54zM58,24H60V26H58zM60,24H62V26H60zM62,24H64V26H62zM64,24H66V26H64zM66,24H68V26H66zM72,24H74V26H72zM76,24H78V26H76zM78,24H80V26H78zM80,24H82V26H80zM8,26H10V28H8zM12,26H14V28H12zM14,26H16V28H14zM22,26H24V28H22zM24,26H26V28H24zM26,26H28V28H26zM28,26H30V28H28zM30,26H32V28H30zM34,26H36V28H34zM40,26H42V28H40zM44,26H46V28H44zM52,26H54V28H52zM54,26H56V28H54zM58,26H60V28H58zM68,26H70V28H68zM70,26H72V28H70zM72,26H74V28H72zM74,26H76V28H74zM76,26H78V28H76zM78,26H80V28H78zM8,28H10V30H8zM12,28H14V30H12zM18,28H20V30H18zM20,28H22V30H20zM24,28H26V30H24zM30,28H32V30H30zM32,28H34V30H32zM38,28H40V30H38zM40,28H42V30H40zM44,28H46V30H44zM46,28H48V30H46zM48,28H50V30H48zM52,28H54V30H52zM54,28H56V30H54zM58,28H60V30H58zM62,28H64V30H62zM64,28H66V30H64zM68,28H70V30H68zM72,28H74V30H72zM74,28H76V30H74zM76,28H78V30H76zM80,28H82V30H80zM14,30H16V32H14zM26,30H28V32H26zM28,30H30V32H28zM30,30H32V32H30zM34,30H36V32H34zM40,30H42V32H40zM42,30H44V32H42zM44,30H46V32H44zM46,30H48V32H46zM48,30H50V32H48zM52,30H54V32H52zM60,30H62V32H60zM64,30H66V32H64zM66,30H68V32H66zM68,30H70V32H68zM70,30H72V32H70zM74,30H76V32H74zM76,30H78V32H76zM78,30H80V32H78zM80,30H82V32H80zM10,32H12V34H10zM14,32H16V34H14zM16,32H18V34H16zM20,32H22V34H20zM22,32H24V34H22zM26,32H28V34H26zM28,32H30V34H28zM30,32H32V34H30zM32,32H34V34H32zM34,32H36V34H34zM38,32H40V34H38zM56,32H58V34H56zM64,32H66V34H64zM68,32H70V34H68zM70,32H72V34H70zM74,32H76V34H74zM76,32H78V34H76zM80,32H82V34H80zM18,34H20V36H18zM22,34H24V36H22zM28,34H30V36H28zM34,34H36V36H34zM38,34H40V36H38zM44,34H46V36H44zM48,34H50V36H48zM54,34H56V36H54zM58,34H60V36H58zM60,34H62V36H60zM62,34H64V36H62zM64,34H66V36H64zM66,34H68V36H66zM72,34H74V36H72zM74,34H76V36H74zM78,34H80V36H78zM8,36H10V38H8zM18,36H20V38H18zM20,36H22V38H20zM22,36H24V38H22zM26,36H28V38H26zM28,36H30V38H28zM34,36H36V38H34zM36,36H38V38H36zM38,36H40V38H38zM40,36H42V38H40zM44,36H46V38H44zM46,36H48V38H46zM48,36H50V38H48zM50,36H52V38H50zM58,36H60V38H58zM62,36H64V38H62zM64,36H66V38H64zM66,36H68V38H66zM68,36H70V38H68zM72,36H74V38H72zM74,36H76V38H74zM76,36H78V38H76zM78,36H80V38H78zM80,36H82V38H80zM10,38H12V40H10zM12,38H14V40H12zM16,38H18V40H16zM26,38H28V40H26zM40,38H42V40H40zM46,38H48V40H46zM54,38H56V40H54zM62,38H64V40H62zM70,38H72V40H70zM74,38H76V40H74zM76,38H78V40H76zM16,40H18V42H16zM18,40H20V42H18zM20,40H22V42H20zM32,40H34V42H32zM34,40H36V42H34zM36,40H38V42H36zM42,40H44V42H42zM44,40H46V42H44zM46,40H48V42H46zM52,40H54V42H52zM56,40H58V42H56zM64,40H66V42H64zM68,40H70V42H68zM70,40H72V42H70zM76,40H78V42H76zM78,40H80V42H78zM80,40H82V42H80zM8,42H10V44H8zM10,42H12V44H10zM12,42H14V44H12zM14,42H16V44H14zM18,42H20V44H18zM22,42H24V44H22zM26,42H28V44H26zM30,42H32V44H30zM36,42H38V44H36zM42,42H44V44H42zM50,42H52V44H50zM56,42H58V44H56zM62,42H64V44H62zM64,42H66V44H64zM66,42H68V44H66zM68,42H70V44H68zM70,42H72V44H70zM8,44H10V46H8zM12,44H14V46H12zM14,44H16V46H14zM20,44H22V46H20zM22,44H24V46H22zM24,44H26V46H24zM26,44H28V46H26zM34,44H36V46H34zM40,44H42V46H40zM44,44H46V46H44zM46,44H48V46H46zM50,44H52V46H50zM52,44H54V46H52zM54,44H56V46H54zM62,44H64V46H62zM66,44H68V46H66zM68,44H70V46H68zM74,44H76V46H74zM80,44H82V46H80zM10,46H12V48H10zM12,46H14V48H12zM18,46H20V48H18zM22,46H24V48H22zM24,46H26V48H24zM26,46H28V48H26zM32,46H34V48H32zM34,46H36V48H34zM36,46H38V48H36zM38,46H40V48H38zM40,46H42V48H40zM46,46H48V48H46zM48,46H50V48H48zM52,46H54V48H52zM54,46H56V48H54zM58,46H60V48H58zM62,46H64V48H62zM64,46H66V48H64zM72,46H74V48H72zM74,46H76V48H74zM80,46H82V48H80zM12,48H14V50H12zM20,48H22V50H20zM22,48H24V50H22zM24,48H26V50H24zM26,48H28V50H26zM34,48H36V50H34zM46,48H48V50H46zM54,48H56V50H54zM56,48H58V50H56zM60,48H62V50H60zM64,48H66V50H64zM66,48H68V50H66zM68,48H70V50H68zM70,48H72V50H70zM72,48H74V50H72zM12,50H14V52H12zM14,50H16V52H14zM16,50H18V52H16zM26,50H28V52H26zM28,50H30V52H28zM30,50H32V52H30zM32,50H34V52H32zM42,50H44V52H42zM46,50H48V52H46zM48,50H50V52H48zM52,50H54V52H52zM54,50H56V52H54zM60,50H62V52H60zM62,50H64V52H62zM64,50H66V52H64zM72,50H74V52H72zM76,50H78V52H76zM78,50H80V52H78zM10,52H12V54H10zM12,52H14V54H12zM14,52H16V54H14zM20,52H22V54H20zM22,52H24V54H22zM24,52H26V54H24zM26,52H28V54H26zM28,52H30V54H28zM38,52H40V54H38zM48,52H50V54H48zM52,52H54V54H52zM54,52H56V54H54zM58,52H60V54H58zM62,52H64V54H62zM64,52H66V54H64zM68,52H70V54H68zM70,52H72V54H70zM74,52H76V54H74zM80,52H82V54H80zM10,54H12V56H10zM12,54H14V56H12zM18,54H20V56H18zM26,54H28V56H26zM32,54H34V56H32zM38,54H40V56H38zM44,54H46V56H44zM48,54H50V56H48zM56,54H58V56H56zM66,54H68V56H66zM68,54H70V56H68zM70,54H72V56H70zM72,54H74V56H72zM74,54H76V56H74zM76,54H78V56H76zM78,54H80V56H78zM8,56H10V58H8zM14,56H16V58H14zM16,56H18V58H16zM20,56H22V58H20zM22,56H24V58H22zM26,56H28V58H26zM30,56H32V58H30zM32,56H34V58H32zM38,56H40V58H38zM42,56H44V58H42zM46,56H48V58H46zM48,56H50V58H48zM50,56H52V58H50zM52,56H54V58H52zM54,56H56V58H54zM56,56H58V58H56zM62,56H64V58H62zM64,56H66V58H64zM66,56H68V58H66zM68,56H70V58H68zM70,56H72V58H70zM80,56H82V58H80zM8,58H10V60H8zM14,58H16V60H14zM24,58H26V60H24zM26,58H28V60H26zM28,58H30V60H28zM32,58H34V60H32zM34,58H36V60H34zM44,58H46V60H44zM46,58H48V60H46zM50,58H52V60H50zM54,58H56V60H54zM60,58H62V60H60zM62,58H64V60H62zM64,58H66V60H64zM66,58H68V60H66zM72,58H74V60H72zM8,60H10V62H8zM10,60H12V62H10zM12,60H14V62H12zM20,60H22V62H20zM28,60H30V62H28zM30,60H32V62H30zM32,60H34V62H32zM34,60H36V62H34zM38,60H40V62H38zM42,60H44V62H42zM44,60H46V62H44zM50,60H52V62H50zM58,60H60V62H58zM60,60H62V62H60zM62,60H64V62H62zM72,60H74V62H72zM74,60H76V62H74zM76,60H78V62H76zM78,60H80V62H78zM80,60H82V62H80zM8,62H10V64H8zM16,62H18V64H16zM18,62H20V64H18zM26,62H28V64H26zM32,62H34V64H32zM36,62H38V64H36zM40,62H42V64H40zM44,62H46V64H44zM46,62H48V64H46zM52,62H54V64H52zM54,62H56V64H54zM56,62H58V64H56zM60,62H62V64H60zM62,62H64V64H62zM64,62H66V64H64zM66,62H68V64H66zM68,62H70V64H68zM70,62H72V64H70zM72,62H74V64H72zM76,62H78V64H76zM8,64H10V66H8zM12,64H14V66H12zM16,64H18V66H16zM18,64H20V66H18zM20,64H22V66H20zM26,64H28V66H26zM28,64H30V66H28zM30,64H32V66H30zM34,64H36V66H34zM38,64H40V66H38zM40,64H42V66H40zM44,64H46V66H44zM46,64H48V66H46zM48,64H50V66H48zM52,64H54V66H52zM54,64H56V66H54zM56,64H58V66H56zM58,64H60V66H58zM64,64H66V66H64zM66,64H68V66H66zM68,64H70V66H68zM70,64H72V66H70zM72,64H74V66H72zM76,64H78V66H76zM80,64H82V66H80zM24,66H26V68H24zM26,66H28V68H26zM30,66H32V68H30zM32,66H34V68H32zM34,66H36V68H34zM42,66H44V68H42zM46,66H48V68H46zM48,66H50V68H48zM50,66H52V68H50zM52,66H54V68H52zM58,66H60V68H58zM64,66H66V68H64zM72,66H74V68H72zM76,66H78V68H76zM78,66H80V68H78zM8,68H10V70H8zM10,68H12V70H10zM12,68H14V70H12zM14,68H16V70H14zM16,68H18V70H16zM18,68H20V70H18zM20,68H22V70H20zM24,68H26V70H24zM26,68H28V70H26zM34,68H36V70H34zM38,68H40V70H38zM42,68H44V70H42zM44,68H46V70H44zM46,68H48V70H46zM54,68H56V70H54zM56,68H58V70H56zM58,68H60V70H58zM60,68H62V70H60zM64,68H66V70H64zM68,68H70V70H68zM72,68H74V70H72zM80,68H82V70H80zM8,70H10V72H8zM20,70H22V72H20zM24,70H26V72H24zM30,70H32V72H30zM32,70H34V72H32zM34,70H36V72H34zM40,70H42V72H40zM50,70H52V72H50zM54,70H56V72H54zM58,70H60V72H58zM62,70H64V72H62zM64,70H66V72H64zM72,70H74V72H72zM80,70H82V72H80zM8,72H10V74H8zM12,72H14V74H12zM14,72H16V74H14zM16,72H18V74H16zM20,72H22V74H20zM24,72H26V74H24zM28,72H30V74H28zM40,72H42V74H40zM44,72H46V74H44zM48,72H50V74H48zM50,72H52V74H50zM54,72H56V74H54zM56,72H58V74H56zM60,72H62V74H60zM62,72H64V74H62zM64,72H66V74H64zM66,72H68V74H66zM68,72H70V74H68zM70,72H72V74H70zM72,72H74V74H72zM80,72H82V74H80zM8,74H10V76H8zM12,74H14V76H12zM14,74H16V76H14zM16,74H18V76H16zM20,74H22V76H20zM24,74H26V76H24zM28,74H30V76H28zM30,74H32V76H30zM32,74H34V76H32zM34,74H36V76H34zM48,74H50V76H48zM52,74H54V76H52zM54,74H56V76H54zM66,74H68V76H66zM68,74H70V76H68zM76,74H78V76H76zM80,74H82V76H80zM8,76H10V78H8zM12,76H14V78H12zM14,76H16V78H14zM16,76H18V78H16zM20,76H22V78H20zM26,76H28V78H26zM28,76H30V78H28zM30,76H32V78H30zM42,76H44V78H42zM50,76H52V78H50zM52,76H54V78H52zM54,76H56V78H54zM72,76H74V78H72zM76,76H78V78H76zM80,76H82V78H80zM8,78H10V80H8zM20,78H22V80H20zM26,78H28V80H26zM28,78H30V80H28zM30,78H32V80H30zM38,78H40V80H38zM42,78H44V80H42zM44,78H46V80H44zM54,78H56V80H54zM56,78H58V80H56zM60,78H62V80H60zM66,78H68V80H66zM68,78H70V80H68zM72,78H74V80H72zM74,78H76V80H74zM76,78H78V80H76zM78,78H80V80H78zM80,78H82V80H80zM8,80H10V82H8zM10,80H12V82H10zM12,80H14V82H12zM14,80H16V82H14zM16,80H18V82H16zM18,80H20V82H18zM20,80H22V82H20zM24,80H26V82H24zM26,80H28V82H26zM30,80H32V82H30zM40,80H42V82H40zM42,80H44V82H42zM46,80H48V82H46zM48,80H50V82H48zM52,80H54V82H52zM56,80H58V82H56zM60,80H62V82H60zM64,80H66V82H64zM68,80H70V82H68zM70,80H72V82H70zM80,80H82V82H80z" id="qr-path" fill="#000000" fill-opacity="1" fill-rule="nonzero" stroke="none" /></svg>